<svg version="1.1" id="Layer_1" xmlns="http://www.w3.org/2000/svg" xmlns:xlink="http://www.w3.org/1999/xlink" x="0px" y="0px"
	 width="100%" viewBox="0 0 120 120" enable-background="new 0 0 120 120" xml:space="preserve">
<path fill="#FCFCFC" opacity="1.000000" stroke="none" 
	d="
M63.000000,121.000000 
	C42.000000,121.000000 21.500000,121.000000 1.000000,121.000000 
	C1.000000,81.000000 1.000000,41.000000 1.000000,1.000000 
	C41.000000,1.000000 81.000000,1.000000 121.000000,1.000000 
	C121.000000,41.000000 121.000000,81.000000 121.000000,121.000000 
	C101.833336,121.000000 82.666664,121.000000 63.000000,121.000000 
M72.152306,52.979904 
	C72.035912,53.355938 71.919518,53.731972 71.092941,54.335304 
	C70.434204,54.665943 69.775467,54.996582 68.739754,54.704224 
	C67.571899,54.465214 66.404053,54.226208 65.021133,53.429203 
	C64.680977,52.948437 64.340820,52.467674 63.875092,51.278240 
	C62.145710,50.560326 60.416325,49.842415 58.014458,48.777794 
	C56.269138,43.180126 54.523819,37.582462 53.489159,31.905329 
	C53.659191,30.265850 53.829224,28.626371 54.568207,26.519659 
	C56.008602,26.231867 57.448997,25.944075 59.084995,26.261786 
	C59.501064,26.892118 59.917133,27.522453 60.333199,28.152788 
	C60.584896,27.688951 60.836597,27.225113 61.699654,26.426811 
	C63.329922,25.467443 66.443550,24.273121 66.335213,23.589132 
	C65.850693,20.530132 64.884659,17.315668 63.154610,14.803125 
	C62.490257,13.838287 59.207428,14.156574 57.333801,14.673446 
	C54.890636,15.347433 52.734966,17.004700 50.321690,17.861910 
	C47.744797,18.777237 44.983276,19.159100 42.357750,19.956272 
	C40.736744,20.448448 39.219177,21.281322 37.183010,22.166506 
	C38.402470,17.088390 39.426537,12.823931 40.450603,8.559472 
	C39.959045,8.236008 39.467484,7.912543 38.975922,7.589079 
	C32.879776,9.617248 26.783630,11.645415 21.306473,13.467648 
	C21.670279,17.151159 22.486353,19.528900 22.008070,21.609034 
	C20.124613,29.800512 17.750246,37.878067 15.769361,46.049122 
	C15.396173,47.588505 15.988995,49.362068 16.136059,51.027573 
	C16.766880,51.171474 17.397701,51.315376 18.028521,51.459278 
	C21.011194,47.781933 24.563820,44.421078 26.827518,40.344490 
	C29.461760,35.600605 33.111374,33.437794 36.901829,33.051071 
	C43.696590,41.564751 50.045185,49.519398 56.425854,57.514233 
	C56.086308,59.058311 55.483974,61.174290 55.171654,63.332241 
	C54.154572,70.359550 53.047848,77.383690 52.379547,84.447266 
	C52.075607,87.659782 50.647537,89.566284 47.488407,90.393295 
	C46.375076,90.257431 45.261749,90.121559 44.342823,89.237846 
	C45.803940,83.489449 47.612915,77.747963 45.056904,72.670326 
	C47.057140,69.100914 48.822948,65.949844 50.588757,62.798767 
	C42.913372,63.221420 38.755299,70.054871 31.511358,69.156792 
	C31.146324,69.111534 30.596649,70.035126 30.233461,70.575203 
	C26.137272,76.666458 27.970335,80.094185 35.239670,80.623276 
	C36.688877,86.152283 38.106995,91.562675 39.439854,97.707260 
	C34.373974,103.013634 29.308100,108.320007 24.164831,113.707451 
	C28.890017,120.164413 32.509171,119.606468 36.909031,112.490440 
	C40.256935,107.075768 44.479687,101.941879 49.242996,97.736107 
	C53.949856,93.580200 56.124928,88.544708 57.870739,82.949280 
	C59.328201,78.278008 59.841797,72.780487 62.722309,69.230072 
	C65.784622,65.455566 71.141045,63.542309 76.277679,60.965466 
	C77.803902,61.312840 79.330116,61.660213 80.886383,62.786434 
	C79.051331,70.134666 77.185364,77.482750 80.089104,85.108994 
	C80.640411,85.560905 81.191719,86.012817 82.186462,86.999664 
	C84.621803,96.262535 91.905952,98.549187 100.135750,99.475296 
	C102.367210,91.499390 99.426636,83.550659 94.148148,83.514496 
	C93.733246,85.358994 93.310806,87.237000 92.750534,89.727730 
	C88.485916,86.036171 86.977180,81.662827 86.015251,76.922943 
	C84.427895,69.101295 87.582420,62.261230 90.166306,55.250740 
	C91.831947,50.731590 90.341263,48.811268 85.671867,49.413441 
	C83.071304,49.748821 80.539803,50.619740 77.929779,50.539574 
	C77.536636,49.991192 77.143494,49.442806 76.962990,48.234558 
	C81.749031,41.415974 87.255722,34.971619 91.061066,27.643759 
	C93.490417,22.965601 95.831642,20.170403 100.851746,20.819448 
	C101.120689,18.857800 101.809441,17.258495 101.402611,16.018690 
	C100.752159,14.036459 99.767311,11.726278 98.180855,10.626163 
	C96.891663,9.732187 94.211411,9.787312 92.681137,10.525943 
	C89.815659,11.909053 87.336342,14.092184 84.177567,16.306168 
	C84.703964,11.264281 85.125763,7.224299 85.646362,2.237988 
	C78.668755,5.711742 72.103531,7.588846 72.382019,15.595844 
	C72.228516,15.562476 72.075005,15.529108 71.921501,15.495740 
	C72.172394,15.680580 72.423279,15.865420 73.519165,16.169231 
	C73.273758,17.442429 73.028351,18.715628 72.126526,20.118681 
	C71.928268,21.460749 71.730003,22.802814 71.477295,24.991957 
	C70.812668,28.693668 70.148041,32.395382 68.930382,36.193340 
	C69.048035,36.747639 69.165680,37.301937 69.283325,37.856236 
	C69.858192,37.244762 70.433052,36.633289 71.153023,35.357506 
	C74.209641,32.402962 77.266266,29.448423 80.322891,26.493881 
	C81.009773,26.975975 81.696655,27.458067 82.383545,27.940159 
	C79.947250,33.302979 77.510963,38.665798 74.472412,44.073654 
	C74.342094,44.724270 74.211777,45.374889 74.024292,46.678288 
	C73.424866,47.815559 72.825432,48.952831 71.507576,50.141342 
	C71.656578,50.899715 71.805573,51.658089 72.152306,52.979904 
M71.098602,86.128807 
	C73.879974,89.779121 75.214577,87.033012 76.902237,85.260368 
	C75.202431,82.515137 74.019234,79.902946 72.188889,77.874786 
	C70.778183,76.311607 67.509583,74.107094 66.886047,74.581009 
	C64.921646,76.074028 63.814243,78.694626 62.079868,81.326958 
	C64.725990,81.876762 65.989792,82.139359 67.142914,83.238701 
	C68.312218,84.053825 69.481522,84.868950 71.098602,86.128807 
z"/>
<path fill="#100F0E" opacity="1.000000" stroke="none" 
	d="
M80.779091,84.857368 
	C77.185364,77.482750 79.051331,70.134666 81.028061,62.067795 
	C81.402603,59.978958 81.635468,58.608765 82.007210,56.421337 
	C79.395790,58.183937 77.445755,59.500130 75.495720,60.816322 
	C71.141045,63.542309 65.784622,65.455566 62.722309,69.230072 
	C59.841797,72.780487 59.328201,78.278008 57.870739,82.949280 
	C56.124928,88.544708 53.949856,93.580200 49.242996,97.736107 
	C44.479687,101.941879 40.256935,107.075768 36.909031,112.490440 
	C32.509171,119.606468 28.890017,120.164413 24.164831,113.707451 
	C29.308100,108.320007 34.373974,103.013634 39.445454,97.338425 
	C39.451054,96.969582 39.414108,97.030800 39.841442,97.155823 
	C40.533943,96.832802 40.799114,96.384758 41.038425,95.965195 
	C41.012569,95.993668 40.943970,96.028496 41.237495,96.293045 
	C43.673512,94.662560 45.816002,92.767525 47.958492,90.872482 
	C50.647537,89.566284 52.075607,87.659782 52.379547,84.447266 
	C53.047848,77.383690 54.154572,70.359550 55.171654,63.332241 
	C55.483974,61.174290 56.086308,59.058311 56.425854,57.514233 
	C50.045185,49.519398 43.696590,41.564751 36.901829,33.051071 
	C33.111374,33.437794 29.461760,35.600605 26.827518,40.344490 
	C24.563820,44.421078 21.011194,47.781933 18.028521,51.459278 
	C17.397701,51.315376 16.766880,51.171474 16.136059,51.027573 
	C15.988995,49.362068 15.396173,47.588505 15.769361,46.049122 
	C17.750246,37.878067 20.124613,29.800512 22.008070,21.609034 
	C22.486353,19.528900 21.670279,17.151159 21.306473,13.467648 
	C26.783630,11.645415 32.879776,9.617248 38.975922,7.589079 
	C39.467484,7.912543 39.959045,8.236008 40.450603,8.559472 
	C39.426537,12.823931 38.402470,17.088390 37.183010,22.166506 
	C39.219177,21.281322 40.736744,20.448448 42.357750,19.956272 
	C44.983276,19.159100 47.744797,18.777237 50.321690,17.861910 
	C52.734966,17.004700 54.890636,15.347433 57.333801,14.673446 
	C59.207428,14.156574 62.490257,13.838287 63.154610,14.803125 
	C64.884659,17.315668 65.850693,20.530132 66.335213,23.589132 
	C66.443550,24.273121 63.329922,25.467443 61.366928,26.323135 
	C60.319267,26.031731 59.604332,25.844006 58.889393,25.656281 
	C57.448997,25.944075 56.008602,26.231867 53.906281,26.736309 
	C53.089069,28.630236 52.933784,30.307516 52.778500,31.984795 
	C54.523819,37.582462 56.269138,43.180126 58.353600,49.318558 
	C58.695915,51.151150 58.699081,52.442974 58.702248,53.734802 
	C59.876568,53.399906 61.058384,53.088699 62.222137,52.720417 
	C62.831348,52.527634 63.408848,52.234646 64.000664,51.986908 
	C64.340820,52.467674 64.680977,52.948437 65.045517,54.092995 
	C65.159119,55.582451 65.248329,56.408115 65.392426,57.741726 
	C66.998222,56.700668 68.057472,56.013943 69.116730,55.327221 
	C69.775467,54.996582 70.434204,54.665943 71.755005,54.234947 
	C73.054977,53.453083 73.692871,52.771576 74.351318,52.065575 
	C74.371864,52.041080 74.434731,52.052746 74.801033,52.158009 
	C76.103951,51.925285 77.040565,51.587299 77.977180,51.249313 
	C80.539803,50.619740 83.071304,49.748821 85.671867,49.413441 
	C90.341263,48.811268 91.831947,50.731590 90.166306,55.250740 
	C87.582420,62.261230 84.427895,69.101295 86.015251,76.922943 
	C86.977180,81.662827 88.485916,86.036171 92.750534,89.727730 
	C93.310806,87.237000 93.733246,85.358994 94.148148,83.514496 
	C99.426636,83.550659 102.367210,91.499390 100.135704,99.475357 
	C91.905952,98.549187 84.621803,96.262535 81.933899,86.490479 
	C81.380585,85.606651 81.079834,85.232010 80.779091,84.857368 
z"/>
<path fill="#0F0B0B" opacity="1.000000" stroke="none" 
	d="
M74.434731,52.052746 
	C74.434731,52.052746 74.371864,52.041080 74.070160,51.930046 
	C73.363998,51.870159 72.959534,51.921307 72.423958,51.676811 
	C72.270569,50.950813 72.248283,50.520458 72.225998,50.090099 
	C72.825432,48.952831 73.424866,47.815559 74.314545,46.201492 
	C74.761429,45.159336 74.918045,44.593975 75.074661,44.028614 
	C77.510963,38.665798 79.947250,33.302979 82.383545,27.940159 
	C81.696655,27.458067 81.009773,26.975975 80.322891,26.493881 
	C77.266266,29.448423 74.209641,32.402962 70.699440,35.710419 
	C69.991707,36.074585 69.737556,36.085838 69.483414,36.097092 
	C70.148041,32.395382 70.812668,28.693668 71.670349,24.301010 
	C72.169922,22.402985 72.476433,21.195906 72.782944,19.988827 
	C73.028351,18.715628 73.273758,17.442429 73.076981,16.084629 
	C72.634796,16.000027 72.696404,15.977679 72.696404,15.977679 
	C72.103531,7.588846 78.668755,5.711742 85.646362,2.237988 
	C85.125763,7.224299 84.703964,11.264281 84.177567,16.306168 
	C87.336342,14.092184 89.815659,11.909053 92.681137,10.525943 
	C94.211411,9.787312 96.891663,9.732187 98.180855,10.626163 
	C99.767311,11.726278 100.752159,14.036459 101.402611,16.018690 
	C101.809441,17.258495 101.120689,18.857800 100.851746,20.819448 
	C95.831642,20.170403 93.490417,22.965601 91.061066,27.643759 
	C87.255722,34.971619 81.749031,41.415974 76.606613,48.629856 
	C75.853004,49.348793 75.455772,49.672432 74.889740,50.038944 
	C74.653557,50.362206 74.586166,50.642590 74.429962,51.200375 
	C74.372330,51.669430 74.403534,51.861088 74.434731,52.052746 
z"/>
<path fill="#0F0E0E" opacity="1.000000" stroke="none" 
	d="
M39.414108,97.030800 
	C39.414108,97.030800 39.451054,96.969582 39.488083,96.971329 
	C38.106995,91.562675 36.688877,86.152283 35.239670,80.623276 
	C27.970335,80.094185 26.137272,76.666458 30.233461,70.575203 
	C30.596649,70.035126 31.146324,69.111534 31.511358,69.156792 
	C38.755299,70.054871 42.913372,63.221420 50.588757,62.798767 
	C48.822948,65.949844 47.057140,69.100914 45.056904,72.670326 
	C47.612915,77.747963 45.803940,83.489449 43.966599,89.823662 
	C42.708241,92.282486 41.826107,94.155487 40.943970,96.028496 
	C40.943970,96.028496 41.012569,95.993668 40.675564,95.958603 
	C40.030411,96.292633 39.722260,96.661713 39.414108,97.030800 
z"/>
<path fill="#221D1C" opacity="1.000000" stroke="none" 
	d="
M67.253601,82.401955 
	C65.989792,82.139359 64.725990,81.876762 62.079868,81.326958 
	C63.814243,78.694626 64.921646,76.074028 66.886047,74.581009 
	C67.509583,74.107094 70.778183,76.311607 72.188889,77.874786 
	C74.019234,79.902946 75.202431,82.515137 76.902237,85.260368 
	C75.214577,87.033012 73.879974,89.779121 70.724442,85.598572 
	C69.318062,84.179543 68.285835,83.290749 67.253601,82.401955 
z"/>
<path fill="#E9E8E7" opacity="1.000000" stroke="none" 
	d="
M41.237495,96.293045 
	C41.826107,94.155487 42.708241,92.282486 43.869396,90.197586 
	C45.261749,90.121559 46.375076,90.257431 47.723450,90.632889 
	C45.816002,92.767525 43.673512,94.662560 41.237495,96.293045 
z"/>
<path fill="#F3F3F2" opacity="1.000000" stroke="none" 
	d="
M63.937878,51.632576 
	C63.408848,52.234646 62.831348,52.527634 62.222137,52.720417 
	C61.058384,53.088699 59.876568,53.399906 58.702248,53.734802 
	C58.699081,52.442974 58.695915,51.151150 58.689842,49.491913 
	C60.416325,49.842415 62.145710,50.560326 63.937878,51.632576 
z"/>
<path fill="#F3F2F0" opacity="1.000000" stroke="none" 
	d="
M75.886703,60.890892 
	C77.445755,59.500130 79.395790,58.183937 82.007210,56.421337 
	C81.635468,58.608765 81.402603,59.978958 81.013046,61.678368 
	C79.330116,61.660213 77.803902,61.312840 75.886703,60.890892 
z"/>
<path fill="#F3F3F2" opacity="1.000000" stroke="none" 
	d="
M53.133827,31.945061 
	C52.933784,30.307516 53.089069,28.630236 53.621803,26.969925 
	C53.829224,28.626371 53.659191,30.265850 53.133827,31.945061 
z"/>
<path fill="#F3F3F2" opacity="1.000000" stroke="none" 
	d="
M68.928238,55.015720 
	C68.057472,56.013943 66.998222,56.700668 65.392426,57.741726 
	C65.248329,56.408115 65.159119,55.582451 65.153053,54.371994 
	C66.404053,54.226208 67.571899,54.465214 68.928238,55.015720 
z"/>
<path fill="#F3F3F2" opacity="1.000000" stroke="none" 
	d="
M72.454735,20.053753 
	C72.476433,21.195906 72.169922,22.402985 71.697578,23.877472 
	C71.730003,22.802814 71.928268,21.460749 72.454735,20.053753 
z"/>
<path fill="#F3F3F2" opacity="1.000000" stroke="none" 
	d="
M74.801033,52.158009 
	C74.403534,51.861088 74.372330,51.669430 74.666061,51.027561 
	C75.013504,50.383595 75.036018,50.189835 75.058540,49.996071 
	C75.455772,49.672432 75.853004,49.348793 76.500290,48.959785 
	C77.143494,49.442806 77.536636,49.991192 77.953476,50.894440 
	C77.040565,51.587299 76.103951,51.925285 74.801033,52.158009 
z"/>
<path fill="#F1F0ED" opacity="1.000000" stroke="none" 
	d="
M67.198257,82.820328 
	C68.285835,83.290749 69.318062,84.179543 70.500557,85.376205 
	C69.481522,84.868950 68.312218,84.053825 67.198257,82.820328 
z"/>
<path fill="#F3F3F2" opacity="1.000000" stroke="none" 
	d="
M69.206894,36.145218 
	C69.737556,36.085838 69.991707,36.074585 70.626892,36.042572 
	C70.433052,36.633289 69.858192,37.244762 69.283325,37.856236 
	C69.165680,37.301937 69.048035,36.747639 69.206894,36.145218 
z"/>
<path fill="#282423" opacity="1.000000" stroke="none" 
	d="
M72.555069,51.972454 
	C72.959534,51.921307 73.363998,51.870159 74.049622,51.954540 
	C73.692871,52.771576 73.054977,53.453083 72.110092,54.121300 
	C71.919518,53.731972 72.035912,53.355938 72.275063,52.686218 
	C72.397820,52.392536 72.555069,51.972454 72.555069,51.972454 
z"/>
<path fill="#F3F3F2" opacity="1.000000" stroke="none" 
	d="
M58.987194,25.959034 
	C59.604332,25.844006 60.319267,26.031731 61.061249,26.490368 
	C60.836597,27.225113 60.584896,27.688951 60.333199,28.152788 
	C59.917133,27.522453 59.501064,26.892118 58.987194,25.959034 
z"/>
<path fill="#F3F2F0" opacity="1.000000" stroke="none" 
	d="
M80.434097,84.983185 
	C81.079834,85.232010 81.380585,85.606651 81.712173,86.223007 
	C81.191719,86.012817 80.640411,85.560905 80.434097,84.983185 
z"/>
<path fill="#F3F3F2" opacity="1.000000" stroke="none" 
	d="
M72.423958,51.676811 
	C72.555069,51.972454 72.397820,52.392536 72.176193,52.404499 
	C71.805573,51.658089 71.656578,50.899715 71.866791,50.115723 
	C72.248283,50.520458 72.270569,50.950813 72.423958,51.676811 
z"/>
<path fill="#F3F3F2" opacity="1.000000" stroke="none" 
	d="
M74.773537,44.051132 
	C74.918045,44.593975 74.761429,45.159336 74.343132,45.875099 
	C74.211777,45.374889 74.342094,44.724270 74.773537,44.051132 
z"/>
<path fill="#F3F3F2" opacity="1.000000" stroke="none" 
	d="
M72.539215,15.786762 
	C72.696404,15.977679 72.634796,16.000027 72.654480,16.025143 
	C72.423279,15.865420 72.172394,15.680580 71.921501,15.495739 
	C72.075005,15.529108 72.228516,15.562476 72.539215,15.786762 
z"/>
<path fill="#E9E8E7" opacity="1.000000" stroke="none" 
	d="
M39.841442,97.155823 
	C39.722260,96.661713 40.030411,96.292633 40.701420,95.930130 
	C40.799114,96.384758 40.533943,96.832802 39.841442,97.155823 
z"/>
<path fill="#100F0E" opacity="1.000000" stroke="none" 
	d="
M74.889740,50.038944 
	C75.036018,50.189835 75.013504,50.383595 74.754890,50.750164 
	C74.586166,50.642590 74.653557,50.362206 74.889740,50.038944 
z"/>
</svg>